# Blender v2.80 (sub 64) OBJ File: 'crate.blend'
# www.blender.org
mtllib crate.mtl
o Cube
v 2.500000 5.000000 -2.500000
v 2.500000 0.000000 -2.500000
v 2.500000 5.000000 2.500000
v 2.500000 0.000000 2.500000
v -2.500000 5.000000 -2.500000
v -2.500000 0.000000 -2.500000
v -2.500000 5.000000 2.500000
v -2.500000 0.000000 2.500000
vt 1.008333 0.990000
vt 0.008333 1.000000
vt 0.018333 0.000000
vt 1.018333 -0.010000
vt 1.011799 -0.009537
vt 1.001799 0.990463
vt 0.001799 1.000463
vt 0.011799 0.000463
vt 0.990338 0.983201
vt -0.009662 0.993201
vt 0.000338 -0.006799
vt 1.000338 -0.016799
vt 0.005000 -0.000000
vt 1.005000 -0.010000
vt 0.995000 0.990000
vt -0.005000 1.000000
vt 0.005463 -0.005800
vt 1.005463 -0.015800
vt 0.995463 0.984200
vt -0.004537 0.994200
vt 0.000800 0.991138
vt 0.010800 -0.008862
vt 1.010800 -0.018862
vt 1.000800 0.981138
vn 0.0000 1.0000 0.0000
vn 0.0000 0.0000 1.0000
vn -1.0000 0.0000 0.0000
vn 0.0000 -1.0000 0.0000
vn 1.0000 0.0000 0.0000
vn 0.0000 0.0000 -1.0000
usemtl Material
s off
f 1/1/1 5/2/1 7/3/1 3/4/1
f 4/5/2 3/6/2 7/7/2 8/8/2
f 8/9/3 7/10/3 5/11/3 6/12/3
f 6/13/4 2/14/4 4/15/4 8/16/4
f 2/17/5 1/18/5 3/19/5 4/20/5
f 6/21/6 5/22/6 1/23/6 2/24/6
